<?xml version="1.0" encoding="UTF-8" standalone="no" ?>
<!DOCTYPE svg PUBLIC "-//W3C//DTD SVG 1.1//EN" "http://www.w3.org/Graphics/SVG/1.1/DTD/svg11.dtd">
<svg xmlns="http://www.w3.org/2000/svg" xmlns:xlink="http://www.w3.org/1999/xlink" version="1.1" width="1080" height="1080" viewBox="0 0 1080 1080" xml:space="preserve">
<desc>Created with Fabric.js 5.2.4</desc>
<defs>
</defs>
<g transform="matrix(1 0 0 1 540 540)" id="3be99069-4dea-4096-98c8-668d4c5fdf80"  >
</g>
<g transform="matrix(1 0 0 1 540 540)" id="f7531fd5-d433-4e20-ad6e-638bf6ce6c20"  >
<rect style="stroke: none; stroke-width: 1; stroke-dasharray: none; stroke-linecap: butt; stroke-dashoffset: 0; stroke-linejoin: miter; stroke-miterlimit: 4; fill: rgb(255,255,255); fill-rule: nonzero; opacity: 1; visibility: hidden;" vector-effect="non-scaling-stroke"  x="-540" y="-540" rx="0" ry="0" width="1080" height="1080" />
</g>
<g transform="matrix(1 0 0 1 540 540)"  >
<path style="stroke: rgb(0,0,0); stroke-width: 0; stroke-dasharray: none; stroke-linecap: butt; stroke-dashoffset: 0; stroke-linejoin: miter; stroke-miterlimit: 4; fill: rgb(255,255,255); fill-rule: nonzero; opacity: 1;" vector-effect="non-scaling-stroke"  transform=" translate(-256, -256)" d="M 443.1 0 L 71.9 0 C 67.9 37.3 37.4 67.8 0 71.7 L 0 443.2 C 37.4 448.09999999999997 66 475.59999999999997 71.9 512 L 444.1 512 C 447.1 475.6 476.6 446.2 512 442.2 L 512 71.7 C 475.6 65.8 447 36.400000000000006 443.1 0 z M 406.1 404.9 C 369.8 404.9 387.3 402.9 351 402.9 C 315.2 402.9 330 404.9 294.9 404.9 C 289 404.9 290 396.7 294.9 395.09999999999997 C 317.7 387.49999999999994 317.79999999999995 384.9 319.5 382.29999999999995 C 329.9 366.69999999999993 325.4 299.29999999999995 325.4 269.29999999999995 C 325.4 263.99999999999994 319 256.49999999999994 311.59999999999997 256.49999999999994 L 200.4 256.49999999999994 C 193 256.49999999999994 186.6 263.99999999999994 186.6 269.29999999999995 C 186.6 299.29999999999995 182.1 366.69999999999993 192.5 382.29999999999995 C 194.2 384.79999999999995 194.3 387.49999999999994 217.1 395.09999999999997 C 222 396.7 223.1 404.9 217.1 404.9 C 182 404.9 196.79999999999998 402.9 161 402.9 C 124.7 402.9 142.2 404.9 105.9 404.9 C 98 404.9 100.10000000000001 394.09999999999997 105.9 394.09999999999997 C 116.10000000000001 390.7 119.4 390.59999999999997 127.60000000000001 380.29999999999995 C 135.3 367.4 135.5 335.9 135.5 252.49999999999994 L 135.5 151.3 C 135.5 129.10000000000002 123.3 123.00000000000001 106.9 118.9 C 98.10000000000001 116.7 102.9 107.10000000000001 107.9 107.10000000000001 C 144.4 107.10000000000001 128.5 109.10000000000001 165 109.10000000000001 C 197.7 109.10000000000001 181.5 107.10000000000001 214.2 107.10000000000001 C 217.5 107.10000000000001 222.7 115.4 215.2 117.9 C 210.29999999999998 119.5 187.6 121.60000000000001 187.6 157.2 C 187.6 202.79999999999998 187.4 213 188.6 226 C 188.6 227.3 190.9 238.8 201.4 238.8 L 310.6 238.8 C 321.1 238.8 323.40000000000003 227.3 323.40000000000003 226 C 324.6 213 324.40000000000003 202.8 324.40000000000003 157.2 C 324.40000000000003 121.6 301.70000000000005 119.49999999999999 296.8 117.89999999999999 C 289.3 115.39999999999999 294.5 107.1 297.8 107.1 C 330.5 107.1 314.3 109.1 347 109.1 C 383.5 109.1 367.6 107.1 404.1 107.1 C 409 107.1 414 116.69999999999999 405.1 118.89999999999999 C 388.70000000000005 122.99999999999999 376.5 129.2 376.5 151.29999999999998 L 376.5 252.5 C 376.5 335.9 376.6 367.4 384.4 380.3 C 392.59999999999997 390.5 395.79999999999995 390.7 406.09999999999997 394.1 C 411.9 394.1 413.9 404.90000000000003 406.09999999999997 404.90000000000003 z" stroke-linecap="round" />
</g>
</svg>